<svg id="Group_13283" data-name="Group 13283" xmlns="http://www.w3.org/2000/svg" width="20.011" height="20.011" viewBox="0 0 20.011 20.011">
  <path id="Path_71702" data-name="Path 71702" d="M347.173,4.69A1.173,1.173,0,0,1,346,3.518V1.173a1.173,1.173,0,0,1,2.345,0V3.518A1.172,1.172,0,0,1,347.173,4.69Z" transform="translate(-332.477)" fill="#0081a7"/>
  <g id="Group_13282" data-name="Group 13282" transform="translate(0 2.345)">
    <path id="Path_71703" data-name="Path 71703" d="M17.862,60h-.821v1.173a2.345,2.345,0,0,1-4.69,0V60H7.661v1.173a2.345,2.345,0,0,1-4.69,0V60H2.15A2.152,2.152,0,0,0,0,62.15v2.619H20.011V62.15A2.152,2.152,0,0,0,17.862,60Z" transform="translate(0 -60)" fill="#0081a7"/>
  </g>
  <path id="Path_71704" data-name="Path 71704" d="M107.173,4.69A1.173,1.173,0,0,1,106,3.518V1.173a1.173,1.173,0,0,1,2.345,0V3.518A1.173,1.173,0,0,1,107.173,4.69Z" transform="translate(-101.857)" fill="#0081a7"/>
  <path id="Path_71705" data-name="Path 71705" d="M12.827,215.226c-1.238,0-1.657,1.336-1.657,2.632s.419,2.641,1.657,2.641,1.657-1.345,1.657-2.641S14.065,215.226,12.827,215.226Zm0,0c-1.238,0-1.657,1.336-1.657,2.632s.419,2.641,1.657,2.641,1.657-1.345,1.657-2.641S14.065,215.226,12.827,215.226ZM0,212v9.576a2.15,2.15,0,0,0,2.15,2.15H17.862a2.15,2.15,0,0,0,2.15-2.15V212Zm7.009,9.22A2.858,2.858,0,0,1,4.9,220.4a.337.337,0,0,1,0-.461l.025-.027a.339.339,0,0,1,.48-.011,2.313,2.313,0,0,0,1.583.6c.945,0,1.52-.468,1.52-1.219,0-.809-.663-1.15-1.618-1.15H6.558a.337.337,0,0,1-.339-.337v-.048a.337.337,0,0,1,.339-.337h.333c.818,0,1.511-.322,1.511-1.072,0-.721-.663-1.111-1.452-1.111a2.126,2.126,0,0,0-1.472.552A.339.339,0,0,1,5,215.75l-.011-.012a.339.339,0,0,1,.023-.471,2.845,2.845,0,0,1,2-.762c1.248,0,2.2.634,2.2,1.735a1.417,1.417,0,0,1-.656,1.21.338.338,0,0,0,.011.567,1.536,1.536,0,0,1,.742,1.332C9.309,220.431,8.441,221.22,7.009,221.22Zm5.818,0c-1.783,0-2.485-1.784-2.485-3.362s.7-3.353,2.485-3.353,2.485,1.764,2.485,3.353S14.6,221.22,12.827,221.22Zm0-5.994c-1.238,0-1.657,1.336-1.657,2.632s.419,2.641,1.657,2.641,1.657-1.345,1.657-2.641S14.065,215.226,12.827,215.226Z" transform="translate(0 -203.714)" fill="#0081a7"/>
</svg>
